<svg xmlns="http://www.w3.org/2000/svg" viewBox="0 0 280 80" role="img" aria-label="Evka Surur Tavukçuluk">
  <g fill="#1e3a5f">
    <path d="M52 18 L60 10 L62 18 L70 16 L66 24 L72 30 L62 32 L60 42 L52 42 Z" />
    <path d="M30 28 C30 22 36 18 44 18 L60 18 L62 20 C66 24 66 30 62 34 L60 36 L60 56 L58 60 L56 62 L52 62 L50 64 L46 64 L44 62 L40 60 L38 56 L38 50 L34 48 L30 44 Z" />
    <path d="M30 48 L24 52 L20 60 L18 68 L26 66 L32 60 Z" opacity="0.7" />
    <path d="M44 64 L42 70 L46 70 L48 64 Z" />
    <path d="M52 64 L50 70 L54 70 L56 64 Z" />
  </g>
  <g fill="#1e3a5f" font-family="system-ui, -apple-system, sans-serif" font-weight="800">
    <text x="92" y="38" font-size="22" letter-spacing="0.5">EVKA SURUR</text>
    <text x="92" y="58" font-size="14" letter-spacing="2" opacity="0.9">TAVUKÇULUK</text>
  </g>
</svg>
